<svg class="t-sociallinks__svg" role="presentation" width="48px" height="48px" viewBox="0 0 100 100" fill="none" xmlns="http://www.w3.org/2000/svg">
  <path fill-rule="evenodd" clip-rule="evenodd" d="M50 100c27.614 0 50-22.386 50-50S77.614 0 50 0 0 22.386 0 50s22.386 50 50 50Zm5.495-74.986c-1.555.002-3.113.004-4.676.028l.001.002c-.04 5.37-.038 10.742-.035 16.12.001 3.007.003 6.015-.004 9.026-.006 1.01-.005 2.019-.004 3.027.002 2.712.005 5.421-.144 8.138-.022.754-.4 1.417-.767 2.06l-.088.154c-1.212 1.977-3.442 3.327-5.769 3.352-3.51.31-6.797-2.563-7.292-5.982-.004-.167-.01-.336-.016-.505-.034-.964-.069-1.948.298-2.846.522-1.482 1.524-2.791 2.843-3.646 1.806-1.255 4.222-1.442 6.29-.773 0-1.318.022-2.636.044-3.953.03-1.767.06-3.534.036-5.303-4.525-.846-9.358.585-12.808 3.59-3.044 2.58-5.005 6.372-5.38 10.336a34.879 34.879 0 0 0 .025 3.1c.431 4.876 3.392 9.418 7.6 11.9 2.54 1.496 5.516 2.309 8.496 2.139 4.858-.082 9.588-2.686 12.313-6.682 1.694-2.4 2.655-5.299 2.818-8.211.042-4.001.04-8.01.036-12.023 0-2.068-.002-4.138.003-6.208 1.082.708 2.189 1.4 3.376 1.938 2.727 1.293 5.746 1.919 8.75 2.017v-8.39c-3.206-.357-6.501-1.415-8.83-3.726-2.335-2.255-3.482-5.504-3.646-8.693-1.156.01-2.312.012-3.47.014Z" fill="#ffffff"></path>
</svg>